<?xml version="1.0" encoding="utf-8"?>
<!-- Generator: Adobe Illustrator 23.0.1, SVG Export Plug-In . SVG Version: 6.00 Build 0)  -->
<svg version="1.1" id="Layer_1" xmlns="http://www.w3.org/2000/svg" xmlns:xlink="http://www.w3.org/1999/xlink" x="0px" y="0px"
	 viewBox="0 0 260 260" style="enable-background:new 0 0 260 260;" xml:space="preserve">
<style type="text/css">
	.st0{fill-rule:evenodd;clip-rule:evenodd;fill:#E1E0E9;}
</style>
<g>
	<g id="i-like-food">
		<path class="st0" d="M24.4,16c0.2,0.6,0.4,1.3,0.5,2h-3.7l1.2,2.3l0.5,0.9l-0.2,0.1V28c2.2,1.7,2.7,4.8,1,7
			c-0.8,1-1.9,1.7-3.2,1.9V37c-0.9,3.5-4.1,6-7.8,6h-20c-3.6,0-6.8-2.5-7.7-6v-0.1c-2.7-0.4-4.6-3-4.2-5.7c0.2-1.3,0.9-2.5,1.9-3.2
			v-6.8l-0.8-1.6l-0.4-0.9l0.9-0.4L-17,18h-3C-17.2,5.6-4.9-2.2,7.5,0.6C15.4,2.3,21.9,8.2,24.4,16z M-12.4,18c-0.2,0-0.3,0-0.4,0.1
			l-3.1,1.6l0.9,1.8l1.3-0.7c0.8-0.4,1.8-0.4,2.7,0l2.2,1.1c0.3,0.1,0.6,0.1,0.9,0l2.2-1.1c0.8-0.4,1.8-0.4,2.7,0l2.2,1.1
			c0.3,0.1,0.6,0.1,0.9,0l2.2-1.1c0.8-0.4,1.8-0.4,2.7,0l2.2,1.1C7.4,22,7.7,22,8,21.9l2.9-1.3c0.8-0.3,1.7-0.3,2.4,0l2.9,1.3
			c0.3,0.1,0.6,0.1,0.9,0l3.1-1.5l-0.9-1.8l-1.4,0.7c-0.8,0.4-1.7,0.4-2.6,0.1l-2.8-1.2C12.3,18,12.2,18,12.1,18l0,0
			c-0.1,0-0.3,0-0.4,0.1l-2.8,1.2c-0.8,0.4-1.8,0.3-2.6-0.1L4,18.1C3.9,18,3.7,18,3.6,18l0,0c-0.2,0-0.3,0-0.4,0.1L1,19.2
			c-0.8,0.4-1.8,0.4-2.7,0L-4,18.1C-4.1,18-4.3,18-4.4,18l0,0c-0.2,0-0.3,0-0.4,0.1L-7,19.2c-0.8,0.4-1.8,0.4-2.7,0l-2.2-1.1
			C-12.1,18-12.3,18-12.4,18L-12.4,18L-12.4,18z M-12.4,16h-4.9C-13.5,5.1-1.5-0.7,9.5,3.2c6,2.1,10.7,6.8,12.8,12.8h-2.1l-0.1-0.1
			L19.9,16H-12.4L-12.4,16z M17.9,23.7l1.4-0.7h1.3v2h-36v-1.1l0.3-0.2l1.4-0.7h2.6l1.4,0.7c0.8,0.4,1.8,0.4,2.7,0l1.4-0.7H-3
			l1.4,0.7c0.8,0.4,1.8,0.4,2.7,0L2.3,23h2.6l1.4,0.7c0.7,0.4,1.7,0.4,2.5,0l1.7-0.7h3.2l1.7,0.7C16.2,24.1,17.1,24.1,17.9,23.7z
			 M-13.8,27l16.4,4.9L18.9,27H-13.8z M-14.4,29h0.3l16.7,5l16.7-5h0.3c1.7,0,3,1.3,3,3s-1.3,3-3,3h-34c-1.7,0-3-1.3-3-3
			C-17.4,30.3-16.1,29-14.4,29z M-13.1,37c0.8,2.4,3.1,4,5.7,4h20c2.5,0,4.8-1.6,5.7-4C18.2,37-13.1,37-13.1,37z"/>
		<path id="path6_fill-copy" class="st0" d="M284.4,16c0.2,0.6,0.4,1.3,0.5,2h-3.7l1.2,2.3l0.5,0.9l-0.2,0.1V28c2.2,1.7,2.7,4.8,1,7
			c-0.8,1-1.9,1.7-3.2,1.9V37c-0.9,3.5-4.1,6-7.8,6h-20c-3.6,0-6.8-2.5-7.7-6v-0.1c-2.7-0.4-4.6-3-4.2-5.7c0.2-1.3,0.9-2.5,1.9-3.2
			v-6.8l-0.8-1.6l-0.4-0.9l0.9-0.4L243,18h-3c2.8-12.4,15.1-20.2,27.5-17.4C275.4,2.3,281.9,8.2,284.4,16z M247.5,18
			c-0.2,0-0.3,0-0.4,0.1l-3.1,1.6l0.9,1.8l1.3-0.7c0.8-0.4,1.8-0.4,2.7,0l2.2,1.1c0.3,0.1,0.6,0.1,0.9,0l2.2-1.1
			c0.8-0.4,1.8-0.4,2.7,0l2.2,1.1c0.3,0.1,0.6,0.1,0.9,0l2.2-1.1c0.8-0.4,1.8-0.4,2.7,0l2.2,1.1c0.3,0.1,0.6,0.1,0.9,0l2.9-1.3
			c0.8-0.3,1.7-0.3,2.4,0l2.9,1.3c0.3,0.1,0.6,0.1,0.9,0l3.1-1.5l-0.9-1.8l-1.4,0.7c-0.8,0.4-1.7,0.4-2.6,0.1l-2.8-1.2
			c-0.1-0.1-0.3-0.1-0.4-0.1l0,0c-0.1,0-0.3,0-0.4,0.1l-2.8,1.2c-0.8,0.4-1.8,0.3-2.6-0.1l-2.3-1.1c-0.1-0.1-0.3-0.1-0.5-0.1l0,0
			c-0.2,0-0.3,0-0.4,0.1l-2.2,1.1c-0.8,0.4-1.8,0.4-2.7,0l-2.2-1.1c-0.1-0.1-0.3-0.1-0.4-0.1l0,0c-0.2,0-0.3,0-0.4,0.1l-2.2,1.1
			c-0.8,0.4-1.8,0.4-2.7,0l-2.2-1.1C247.9,18,247.7,18,247.5,18L247.5,18L247.5,18z M247.5,16h-4.9c3.9-10.9,15.9-16.7,26.8-12.8
			c6,2.1,10.7,6.8,12.8,12.8h-2.1l-0.1-0.1l-0.3,0.1H247.5L247.5,16z M277.9,23.7l1.4-0.7h1.3v2h-36v-1.1l0.3-0.2l1.4-0.7h2.6
			l1.4,0.7c0.8,0.4,1.8,0.4,2.7,0l1.4-0.7h2.6l1.4,0.7c0.8,0.4,1.8,0.4,2.7,0l1.4-0.7h2.6l1.4,0.7c0.8,0.4,1.7,0.4,2.6,0.1l1.7-0.7
			h3.2l1.7,0.7C276.2,24.1,277.1,24.1,277.9,23.7L277.9,23.7z M246.2,27l16.4,4.9L279,27H246.2z M245.5,29h0.3l16.7,5l16.7-5h0.3
			c1.7,0,3,1.3,3,3s-1.3,3-3,3h-34c-1.7,0-3-1.3-3-3S243.9,29,245.5,29z M246.9,37c0.8,2.4,3.1,4,5.6,4h20c2.5,0,4.8-1.6,5.7-4
			H246.9z"/>
		<path class="st0" d="M159.5,21c-1.3-3.6-4.7-6-8.5-6h-42c-3.8,0-7.2,2.4-8.5,6c-3.3,0.3-5.8,3.2-5.5,6.5c0.2,2.9,2.6,5.2,5.5,5.5
			c-1.7,4.7,0.8,9.8,5.4,11.5c1,0.3,2,0.5,3,0.5h42c5,0,9-4,9-9c0-1-0.2-2.1-0.5-3c3.3-0.3,5.8-3.2,5.5-6.5
			C164.7,23.6,162.4,21.3,159.5,21z M151,17h-42c-2.7,0-5.2,1.6-6.3,4h54.7C156.2,18.6,153.7,17,151,17z M141.7,43
			c2.1-1.7,3.3-4.3,3.3-7h-2c0,3.9-3.1,7-7,7h-4.3c2.1-1.7,3.3-4.3,3.3-7h-2c0,3.9-3.1,7-7,7h-4.3c2.1-1.7,3.3-4.3,3.3-7h-2
			c0,3.9-3.1,7-7,7h-7c-3.9,0-7-3.1-7-7s3.1-7,7-7h42c3.9,0,7,3.1,7,7s-3.1,7-7,7H141.7z M109,27c-3,0-5.8,1.5-7.5,4H101
			c-2.2,0-4-1.8-4-4s1.8-4,4-4h58c2.2,0,4,1.8,4,4s-1.8,4-4,4h-0.5c-1.7-2.5-4.5-4-7.5-4H109z"/>
		<path class="st0" d="M39,115c4.4,0,8-3.6,8-8s-3.6-8-8-8s-8,3.6-8,8S34.6,115,39,115z M45,107c0,3.3-2.7,6-6,6s-6-2.7-6-6
			s2.7-6,6-6S45,103.7,45,107z M42,78v-2h8v-6H40c-2.2,0-4,1.8-4,4v10H22l-1.3,4L20,90h2.2l3.8,40h26l3.8-40H58l-0.7-2L56,84H42V78z
			 M38,74v10h2V74h8v-2h-8C38.9,72,38,72.9,38,74z M40,86h14.6l0.7,2H22.8l0.7-2H40z M53.8,90H24.2l3.6,38h22.4L53.8,90z"/>
		<path class="st0" d="M129,92h-6v4h-6v4h-6v14h-3l0.2,2l3.8,32h36l3.8-32l0.2-2h-3v-14h-6v-4h-6v-4H129z M147,114v-12h-4v4h3v8H147
			z M144,114v-6h-4v6H144z M138,120v-16h-4v19.2C135.6,122.5,137,121.4,138,120z M132,123.8V100h-4v23.8
			C129.3,124.1,130.7,124.1,132,123.8z M126,123.2V104h-4v16C123,121.4,124.4,122.5,126,123.2z M120,114v-6h-4v6H120z M114,114v-8h3
			v-4h-4v12H114z M141,102v-4h-4v4h3v4h1V102z M135,102v-8h-4v4h3v4H135z M129,98v-4h-4v8h1v-4H129z M123,102v-4h-4v8h1v-4H123z
			 M130,126c5.9,0,10.9-4.2,11.8-10h7.9l-3.5,30h-32.4l-3.5-30h7.9C119.1,121.8,124.1,126,130,126z"/>
		<path class="st0" d="M212,86v2h-4v-2H212z M216,86h-2v2h2V86z M196,86L196,86c-2.7,0.7-4.5,3.3-3.9,6c0.4,1.8,1.6,3.2,3.3,3.8
			l0.1,0.2l1.1,4.5c0.2,0.9,1,1.5,1.9,1.5l0,0l7,24.6c0.2,0.9,1,1.4,1.9,1.4h5c0.9,0,1.7-0.6,1.9-1.4l7-24.6c0.9,0,1.7-0.6,1.9-1.5
			l1.1-4.5l0.1-0.2c2.6-0.9,4.1-3.7,3.2-6.3c-0.6-1.7-2-3-3.8-3.3V86c0-7.7-6.3-14-14-14S196,78.3,196,86z M200,86h6v2h-9
			c-1.7,0-3,1.3-3,3s1.3,3,3,3h26c1.7,0,3-1.3,3-3s-1.3-3-3-3h-3v-2h2c0-6.6-5.4-12-12-12s-12,5.4-12,12H200z M198.6,100l-1-4h24.9
			l-1,4H198.6z M207.5,126l-6.9-24h18.7l-6.9,24H207.5z M150,242c12.2,0,22-9.8,22-22s-9.8-22-22-22s-22,9.8-22,22
			S137.8,242,150,242z M174,220c0,13.3-10.7,24-24,24s-24-10.7-24-24l0,0c0-13.3,10.7-24,24-24S174,206.7,174,220z M145.6,237.7
			l2-0.9c1.5-0.6,3.2-0.6,4.7,0l2,0.9c0.9,0.4,2,0,2.5-0.8l1.1-1.9c0.8-1.4,2.2-2.4,3.8-2.8l2.1-0.5c1-0.2,1.6-1.1,1.5-2.1l-0.2-2.2
			c-0.1-1.6,0.4-3.2,1.4-4.5l1.4-1.7c0.7-0.8,0.7-1.9,0-2.6l-1.4-1.7c-1.1-1.2-1.6-2.8-1.4-4.5l0.2-2.2c0.1-1-0.6-1.9-1.6-2.1
			l-2.1-0.5c-1.6-0.4-3-1.4-3.8-2.8l-1.1-1.9c-0.5-0.9-1.6-1.2-2.5-0.8l-2,0.9c-1.5,0.6-3.2,0.6-4.7,0l-2-0.9c-0.9-0.4-2,0-2.5,0.8
			l-1,2.1c-0.8,1.4-2.2,2.4-3.8,2.8l-2.1,0.5c-1,0.2-1.6,1.1-1.5,2.1l0.2,2.2c0.1,1.6-0.4,3.2-1.4,4.5l-1.4,1.7
			c-0.7,0.8-0.7,1.9,0,2.6l1.4,1.7c1.1,1.2,1.6,2.8,1.4,4.5l-0.2,2.2c-0.1,1,0.6,1.9,1.6,2.1l2.1,0.5c1.6,0.4,3,1.4,3.8,2.8l1.1,1.9
			C143.6,237.8,144.7,238.1,145.6,237.7L145.6,237.7z M148.4,238.7c1-0.4,2.1-0.4,3.1,0l2,0.9c1.8,0.8,4,0.1,5-1.6l1.1-1.9
			c0.6-0.9,1.5-1.6,2.5-1.8l2.1-0.5c1.9-0.4,3.3-2.3,3.1-4.2l-0.2-2.2c-0.1-1.1,0.3-2.2,1-3l1.4-1.7c1.3-1.5,1.3-3.7,0-5.2l-1.4-1.7
			c-0.7-0.8-1.1-1.9-1-3l0.2-2.2c0.2-2-1.1-3.8-3.1-4.2l-2.1-0.5c-1.1-0.2-2-0.9-2.5-1.8l-1.1-1.9c-1-1.7-3.2-2.4-5-1.6l-2,0.9
			c-1,0.4-2.1,0.4-3.1,0l-2-0.9c-1.8-0.8-4-0.1-5,1.6l-1.1,1.9c-0.6,0.9-1.5,1.6-2.5,1.8l-2.1,0.5c-1.9,0.4-3.3,2.3-3.1,4.2l0.2,2.2
			c0.1,1.1-0.3,2.2-1,3l-1.4,1.7c-1.3,1.5-1.3,3.7,0,5.2l1.4,1.7c0.7,0.8,1.1,1.9,1,3l-0.2,2.2c-0.2,2,1.1,3.8,3.1,4.2l2.1,0.5
			c1.1,0.2,2,0.9,2.5,1.8l1.1,1.9c1,1.7,3.2,2.4,5,1.6L148.4,238.7z M152,207c0-0.6,0.4-1,1-1s1,0.4,1,1s-0.4,1-1,1
			S152,207.6,152,207z M158,209c0-0.6,0.4-1,1-1s1,0.4,1,1s-0.4,1-1,1S158,209.6,158,209z M147,210c0-0.6,0.4-1,1-1s1,0.4,1,1
			s-0.4,1-1,1S147,210.6,147,210z M141,210c0-0.6,0.4-1,1-1s1,0.4,1,1s-0.4,1-1,1S141,210.6,141,210z M144,205c0-0.6,0.4-1,1-1
			s1,0.4,1,1s-0.4,1-1,1S144,205.6,144,205z M136,213c0-0.6,0.4-1,1-1s1,0.4,1,1s-0.4,1-1,1S136,213.6,136,213z M139,219
			c0-0.6,0.4-1,1-1s1,0.4,1,1s-0.4,1-1,1S139,219.6,139,219z M139,225c0-0.6,0.4-1,1-1s1,0.4,1,1s-0.4,1-1,1S139,225.6,139,225z
			 M143,232c0-0.6,0.4-1,1-1s1,0.4,1,1s-0.4,1-1,1S143,232.6,143,232z M148,230c0-0.6,0.4-1,1-1s1,0.4,1,1s-0.4,1-1,1
			S148,230.6,148,230z M153,234c0-0.6,0.4-1,1-1s1,0.4,1,1s-0.4,1-1,1S153,234.6,153,234z M157,228c0-0.6,0.4-1,1-1s1,0.4,1,1
			s-0.4,1-1,1S157,228.6,157,228z M163,224c0-0.6,0.4-1,1-1s1,0.4,1,1s-0.4,1-1,1S163,224.6,163,224z M159,221c0-0.6,0.4-1,1-1
			s1,0.4,1,1s-0.4,1-1,1S159,221.6,159,221z M163,218c0-0.6,0.4-1,1-1s1,0.4,1,1s-0.4,1-1,1S163,218.6,163,218z M158,214
			c0-0.6,0.4-1,1-1s1,0.4,1,1s-0.4,1-1,1S158,214.6,158,214z M134,220c0-0.6,0.4-1,1-1s1,0.4,1,1s-0.4,1-1,1S134,220.6,134,220z
			 M150,225c2.8,0,5-2.2,5-5s-2.2-5-5-5s-5,2.2-5,5S147.2,225,150,225z M157,220c0,3.9-3.1,7-7,7s-7-3.1-7-7s3.1-7,7-7
			S157,216.1,157,220z M243,191c-0.6,0-1,0.4-1,1s0.4,1,1,1h2c0.6,0,1-0.4,1-1s-0.4-1-1-1H243z M262,200c0-0.6,0.4-1,1-1h2
			c0.6,0,1,0.4,1,1s-0.4,1-1,1h-2C262.4,201,262,200.6,262,200z M248,205c-0.6,0-1,0.4-1,1s0.4,1,1,1h2c0.6,0,1-0.4,1-1s-0.4-1-1-1
			H248z M223,206c-0.6,0-1,0.4-1,1s0.4,1,1,1h2c0.6,0,1-0.4,1-1s-0.4-1-1-1H223z M228,210c-0.6,0-1,0.4-1,1s0.4,1,1,1h2
			c0.6,0,1-0.4,1-1s-0.4-1-1-1H228z M237,210c0-0.6,0.4-1,1-1h2c0.6,0,1,0.4,1,1s-0.4,1-1,1h-2C237.4,211,237,210.6,237,210z
			 M252,211c0-0.6,0.4-1,1-1h2c0.6,0,1,0.4,1,1s-0.4,1-1,1h-2C252.4,212,252,211.6,252,211z M264,209c-0.6,0-1,0.4-1,1s0.4,1,1,1h2
			c0.6,0,1-0.4,1-1s-0.4-1-1-1H264z M253,195c0-0.6,0.4-1,1-1h2c0.6,0,1,0.4,1,1s-0.4,1-1,1h-2C253.4,196,253,195.6,253,195z
			 M234,195c-0.6,0-1,0.4-1,1s0.4,1,1,1h2c0.6,0,1-0.4,1-1s-0.4-1-1-1H234z M240,200c0-0.6,0.4-1,1-1h2c0.6,0,1,0.4,1,1s-0.4,1-1,1
			h-2C240.4,201,240,200.6,240,200z M215,215c0-0.5,0-0.9,0-1.4c-2.5-1.1-3.7-4-2.6-6.6c0.2-0.5,0.5-1,0.9-1.4c-0.9-2,0-4.2,1.9-5.2
			c-0.8-2.6,0.7-5.4,3.4-6.2l0,0c0.4-0.5,0.9-0.9,1.5-1.1c0.5-2.7,3.1-4.5,5.8-4.1c0.7,0.1,1.4,0.4,2,0.8c5.3-3.8,11.6-5.9,18.2-5.9
			c6.8,0,13.1,2.2,18.2,5.9c2.3-1.6,5.4-1,7,1.3c0.4,0.6,0.7,1.3,0.8,2c0.6,0.2,1.1,0.6,1.5,1.1c2.7,0.8,4.2,3.5,3.4,6.2l0,0
			c1.9,1,2.7,3.2,1.9,5.2c1.9,2,1.8,5.2-0.2,7c-0.4,0.4-0.9,0.7-1.5,1c0,0.5,0,0.9,0,1.4v1h-62v-1H215z M215.8,207.8
			c-0.3,1.2-0.5,2.4-0.6,3.6c-1.3-1-1.6-2.9-0.6-4.2l0,0C215,207.5,215.4,207.7,215.8,207.8L215.8,207.8z M217.3,203.2
			c-0.4,0.9-0.7,1.8-1,2.7c-1-0.4-1.6-1.5-1.3-2.5c0.2-0.5,0.6-0.9,1.1-1.2C216.5,202.6,216.9,202.9,217.3,203.2L217.3,203.2z
			 M219.6,198.7c-0.5,0.9-1,1.8-1.5,2.7c-1.3-1-1.5-2.9-0.5-4.2c0.1-0.2,0.3-0.3,0.4-0.5C218.3,197.6,218.9,198.3,219.6,198.7
			L219.6,198.7z M220.8,197c0.4-0.5,0.7-1,1.1-1.5c-0.3-0.5-0.9-0.7-1.4-0.4s-0.7,0.9-0.4,1.4C220.3,196.7,220.5,196.9,220.8,197
			L220.8,197z M226.1,191.2c-1,0.9-2,1.8-2.9,2.8c-0.3-0.3-0.7-0.6-1.1-0.8c0.4-1.6,2.1-2.5,3.7-2.1
			C225.9,191.1,226,191.2,226.1,191.2L226.1,191.2z M268.8,194c-0.9-1-1.9-1.9-2.9-2.8c1.5-0.6,3.3,0.1,3.9,1.7
			c0,0.1,0.1,0.2,0.1,0.3C269.5,193.4,269.1,193.6,268.8,194L268.8,194z M270.1,195.5c0.4,0.5,0.8,1,1.1,1.4
			c0.5-0.1,0.9-0.7,0.8-1.2s-0.7-0.9-1.2-0.8C270.5,195.1,270.3,195.3,270.1,195.5z M273.9,201.4c-0.5-0.9-1-1.8-1.5-2.7
			c0.8-0.4,1.4-1.1,1.6-2c1.3,1.1,1.4,3,0.4,4.2C274.2,201.1,274,201.2,273.9,201.4z M275.6,205.9c-0.3-0.9-0.6-1.8-1-2.7
			c0.4-0.3,0.8-0.6,1.2-1c1,0.5,1.4,1.7,1,2.7C276.6,205.3,276.2,205.7,275.6,205.9z M276.8,211.4c-0.1-1.2-0.4-2.4-0.6-3.6
			c0.5-0.1,0.9-0.4,1.2-0.6C278.4,208.5,278.1,210.4,276.8,211.4L276.8,211.4L276.8,211.4z M275,214c-0.5-16-13.9-28.6-29.9-28.1
			c-15.3,0.5-27.6,12.8-28.1,28.1H275L275,214z M72.3,198.1c-0.2-0.3-0.3-0.7-0.3-1.1v-12h-2v12c0,2.2,1.8,4,4,4
			c1.2,0,2.3-0.5,3.1-1.4c0.6-0.7,0.9-1.6,0.9-2.5v-12h-2v12c0,1.1-0.9,2-2,2l0,0C73.3,199,72.7,198.7,72.3,198.1z M75,176
			c0.4,0,0.7,0,1.1-0.1c0.5,2.2,2.6,3.5,4.8,3c0.5-0.1,1-0.3,1.4-0.6c1.1,2.1,1.7,4.4,1.7,6.7v24c0,3.3-2.7,6-6,6h-3v9
			c0,2.8-2.2,5-5,5s-5-2.2-5-5v-9h-3c-3.3,0-6-2.7-6-6v-24c0-7.7,6.3-14,14-14C70,173.8,72.2,176,75,176z M58,191v12
			c0,0.8,0.5,1.5,1.2,1.8c0.9,0.4,1.9,0.1,2.4-0.7c0.2-0.3,0.3-0.7,0.3-1.1v-12h2v12c0,2.2-1.7,4-3.9,4c-0.5,0-1-0.1-1.4-0.2
			c-0.2-0.1-0.4-0.2-0.7-0.3v2.5c0,2.2,1.8,4,4,4h16c2.2,0,4-1.8,4-4v-24c0-1.5-0.2-2.9-0.7-4.2c-0.4,0.1-0.9,0.2-1.3,0.2
			c-2.1,0-4.1-1.1-5.2-3c-3-0.1-5.6-2-6.5-4.9C62.4,174,58,179,58,185V191z M67,215v9c0,1.7,1.3,3,3,3s3-1.3,3-3v-9H67z"/>
		<path class="st0" d="M-17,191c-0.6,0-1,0.4-1,1s0.4,1,1,1h2c0.6,0,1-0.4,1-1s-0.4-1-1-1H-17z M2,200c0-0.6,0.4-1,1-1h2
			c0.6,0,1,0.4,1,1s-0.4,1-1,1H3C2.4,201,2,200.6,2,200z M-12,205c-0.6,0-1,0.4-1,1s0.4,1,1,1h2c0.6,0,1-0.4,1-1s-0.4-1-1-1H-12z
			 M-37,206c-0.6,0-1,0.4-1,1s0.4,1,1,1h2c0.6,0,1-0.4,1-1s-0.4-1-1-1H-37z M-32,210c-0.6,0-1,0.4-1,1s0.4,1,1,1h2c0.6,0,1-0.4,1-1
			s-0.4-1-1-1H-32z M-23,210c0-0.6,0.4-1,1-1h2c0.6,0,1,0.4,1,1s-0.4,1-1,1h-2C-22.6,211-23,210.6-23,210z M-8,211c0-0.6,0.4-1,1-1
			h2c0.6,0,1,0.4,1,1s-0.4,1-1,1h-2C-7.6,212-8,211.6-8,211z M4,209c-0.6,0-1,0.4-1,1s0.4,1,1,1h2c0.6,0,1-0.4,1-1s-0.4-1-1-1H4z
			 M-7,195c0-0.6,0.4-1,1-1h2c0.6,0,1,0.4,1,1s-0.4,1-1,1h-2C-6.6,196-7,195.6-7,195z M-26,195c-0.6,0-1,0.4-1,1s0.4,1,1,1h2
			c0.6,0,1-0.4,1-1s-0.4-1-1-1H-26z M-20,200c0-0.6,0.4-1,1-1h2c0.6,0,1,0.4,1,1s-0.4,1-1,1h-2C-19.6,201-20,200.6-20,200z M-45,215
			c0-0.5,0-0.9,0-1.4c-2.5-1.1-3.7-4-2.6-6.6c0.2-0.5,0.5-1,0.9-1.4c-0.9-2,0-4.2,1.9-5.2c-0.8-2.6,0.7-5.4,3.4-6.2l0,0
			c0.4-0.5,0.9-0.9,1.5-1.1c0.5-2.7,3.1-4.5,5.8-4.1c0.7,0.1,1.4,0.4,2,0.8c5.3-3.8,11.6-5.9,18.2-5.9c6.8,0,13.1,2.2,18.2,5.9
			c2.3-1.6,5.4-1,7,1.3c0.4,0.6,0.7,1.3,0.8,2c0.6,0.2,1.1,0.6,1.5,1.1c2.7,0.8,4.2,3.5,3.4,6.2l0,0c1.9,1,2.7,3.2,1.9,5.2
			c1.9,2,1.8,5.2-0.2,7c-0.4,0.4-0.9,0.7-1.5,1c0,0.5,0,0.9,0,1.4v1h-62v-1H-45z M-44.2,207.8c-0.3,1.2-0.5,2.4-0.6,3.6
			c-1.3-1-1.6-2.9-0.6-4.2l0,0C-45,207.5-44.6,207.7-44.2,207.8L-44.2,207.8z M-42.7,203.2c-0.4,0.9-0.7,1.8-1,2.7
			c-1-0.4-1.6-1.5-1.3-2.5c0.2-0.5,0.6-0.9,1.1-1.2C-43.5,202.6-43.1,202.9-42.7,203.2L-42.7,203.2z M-40.4,198.7
			c-0.5,0.9-1,1.8-1.5,2.7c-1.3-1-1.5-2.9-0.5-4.2c0.1-0.2,0.3-0.3,0.4-0.5C-41.7,197.6-41.1,198.3-40.4,198.7z M-39.2,197
			c0.3-0.5,0.7-1,1.1-1.5c-0.3-0.5-0.9-0.7-1.4-0.4s-0.7,0.9-0.4,1.4C-39.7,196.7-39.5,196.9-39.2,197L-39.2,197z M-33.9,191.2
			c-1,0.9-2,1.8-2.9,2.8c-0.3-0.3-0.7-0.6-1.1-0.8c0.4-1.6,2.1-2.5,3.7-2.1C-34.1,191.1-34,191.2-33.9,191.2L-33.9,191.2z M8.8,194
			c-0.9-1-1.9-1.9-2.9-2.8c1.5-0.6,3.3,0.1,3.9,1.7c0,0.1,0.1,0.2,0.1,0.3C9.5,193.4,9.1,193.6,8.8,194L8.8,194z M10.1,195.5
			c0.4,0.5,0.8,1,1.1,1.4c0.5-0.1,0.9-0.7,0.8-1.2c-0.1-0.5-0.7-0.9-1.2-0.8C10.5,195.1,10.3,195.3,10.1,195.5z M13.9,201.4
			c-0.5-0.9-0.9-1.8-1.5-2.7c0.8-0.4,1.4-1.1,1.6-2c1.3,1.1,1.4,3,0.4,4.2C14.2,201.1,14,201.2,13.9,201.4z M15.7,205.9
			c-0.3-0.9-0.6-1.8-1-2.7c0.4-0.3,0.8-0.6,1.2-1c1,0.5,1.4,1.7,1,2.7C16.6,205.3,16.2,205.7,15.7,205.9z M16.8,211.4
			c-0.1-1.2-0.4-2.4-0.6-3.6c0.5-0.1,0.9-0.4,1.2-0.6C18.4,208.5,18.1,210.4,16.8,211.4L16.8,211.4L16.8,211.4z M15,214
			c-0.5-16-13.9-28.6-29.9-28.1c-15.3,0.5-27.6,12.8-28.1,28.1H15L15,214z"/>
	</g>
</g>
</svg>
